<svg width="24" height="24" viewBox="0 0 24 24" fill="none" xmlns="http://www.w3.org/2000/svg">
<path d="M19.4704 14.645C19.477 14.6128 19.5231 14.6128 19.5297 14.645C19.8719 16.3195 21.1805 17.6281 22.855 17.9703C22.8873 17.9769 22.8873 18.023 22.855 18.0296C21.1805 18.3719 19.8719 19.6805 19.5297 21.355C19.5231 21.3872 19.477 21.3872 19.4704 21.355C19.1281 19.6805 17.8195 18.3719 16.145 18.0296C16.1128 18.023 16.1128 17.9769 16.145 17.9703C17.8195 17.6281 19.1281 16.3195 19.4704 14.645Z" stroke="#4EBEE5"/>
<path d="M15.7187 10.3761C15.7813 10.07 16.2187 10.07 16.2812 10.3761C16.4194 11.0522 16.9478 11.5806 17.6239 11.7188C17.93 11.7813 17.93 12.2187 17.6239 12.2813C16.9478 12.4195 16.4194 12.9478 16.2812 13.6239C16.2187 13.93 15.7813 13.93 15.7187 13.6239C15.5805 12.9478 15.0522 12.4195 14.3761 12.2813C14.07 12.2187 14.07 11.7813 14.3761 11.7188C15.0522 11.5806 15.5805 11.0522 15.7187 10.3761Z" fill="#4EBEE5"/>
<path d="M11.6635 3.07836L11.454 2.62438L11.6635 3.07836ZM12.659 2.6189L12.8685 3.07288V3.07288L12.659 2.6189ZM15.341 2.6189L15.5505 2.16492L15.5505 2.16492L15.341 2.6189ZM16.3365 3.07836L16.1269 3.53234V3.53234L16.3365 3.07836ZM12.75 22.5C13.0261 22.5 13.25 22.2761 13.25 22C13.25 21.7238 13.0261 21.5 12.75 21.5V22V22.5ZM21 12C21 12.2761 21.2239 12.5 21.5 12.5C21.7761 12.5 22 12.2761 22 12H21.5H21ZM13.6558 2.23257L13.7418 2.72511V2.72511L13.6558 2.23257ZM14.3442 2.23257L14.2582 2.72511V2.72511L14.3442 2.23257ZM16.6827 3.22885L16.5158 3.70016L16.5158 3.70016L16.6827 3.22885ZM18.1988 3.16512L18.3652 3.63662L18.3652 3.63662L18.1988 3.16512ZM17.84 3.28277L17.9624 3.76756L17.9624 3.76756L17.84 3.28277ZM19.2773 2.83922L19.2216 2.34233V2.34233L19.2773 2.83922ZM21.4484 4.37527L20.9613 4.48815L20.9613 4.48815L21.4484 4.37527ZM9.80122 3.16512L9.96763 2.69363V2.69363L9.80122 3.16512ZM10.16 3.28277L10.0376 3.76756V3.76756L10.16 3.28277ZM11.3173 3.22885L11.1503 2.75754L11.1503 2.75754L11.3173 3.22885ZM6.55163 4.37527L7.03872 4.48815V4.48815L6.55163 4.37527ZM8.72269 2.83922L8.66702 3.33611L8.66702 3.33611L8.72269 2.83922ZM10.5 6.99999C10.2239 6.99999 10 7.22384 10 7.49999C10 7.77613 10.2239 7.99999 10.5 7.99999V7.49999V6.99999ZM17.5 7.99999C17.7761 7.99999 18 7.77613 18 7.49999C18 7.22384 17.7761 6.99999 17.5 6.99999V7.49999V7.99999ZM10.5 11.5C10.2239 11.5 10 11.7238 10 12C10 12.2761 10.2239 12.5 10.5 12.5V12V11.5ZM12.25 12.5C12.5261 12.5 12.75 12.2761 12.75 12C12.75 11.7238 12.5261 11.5 12.25 11.5V12V12.5ZM2.92945 12.3577L3.1867 11.9289V11.9289L2.92945 12.3577ZM5.15917 12.5363L4.97347 12.0721H4.97347L5.15917 12.5363ZM6.5 12H7V5.50079H6.5H6V12H6.5ZM11.6635 3.07836L11.8731 3.53234L12.8685 3.07288L12.659 2.6189L12.4495 2.16492L11.454 2.62438L11.6635 3.07836ZM15.341 2.6189L15.1315 3.07288L16.1269 3.53234L16.3365 3.07836L16.546 2.62438L15.5505 2.16492L15.341 2.6189ZM12.75 22V21.5H4V22V22.5H12.75V22ZM21.5 5.50079H21V12H21.5H22V5.50079H21.5ZM12.659 2.6189L12.8685 3.07288C13.3859 2.8341 13.5641 2.75616 13.7418 2.72511L13.6558 2.23257L13.5697 1.74003C13.2334 1.79878 12.9185 1.94847 12.4495 2.16492L12.659 2.6189ZM15.341 2.6189L15.5505 2.16492C15.0815 1.94847 14.7666 1.79878 14.4303 1.74003L14.3442 2.23257L14.2582 2.72511C14.4359 2.75616 14.6141 2.8341 15.1315 3.07288L15.341 2.6189ZM13.6558 2.23257L13.7418 2.72511C13.9127 2.69527 14.0873 2.69527 14.2582 2.72511L14.3442 2.23257L14.4303 1.74003C14.1456 1.69029 13.8544 1.69029 13.5697 1.74003L13.6558 2.23257ZM16.3365 3.07836L16.1269 3.53234C16.2916 3.60834 16.4023 3.65995 16.5158 3.70016L16.6827 3.22885L16.8497 2.75754C16.7896 2.73628 16.7273 2.70805 16.546 2.62438L16.3365 3.07836ZM18.1988 3.16512L18.0324 2.69363C17.8441 2.76008 17.7794 2.78239 17.7176 2.79798L17.84 3.28277L17.9624 3.76756C18.0792 3.73808 18.1942 3.69698 18.3652 3.63662L18.1988 3.16512ZM16.6827 3.22885L16.5158 3.70016C16.9808 3.86486 17.4841 3.88831 17.9624 3.76756L17.84 3.28277L17.7176 2.79798C17.4307 2.87043 17.1287 2.85636 16.8497 2.75754L16.6827 3.22885ZM18.1988 3.16512L18.3652 3.63662C18.9626 3.42575 19.1776 3.35352 19.333 3.33611L19.2773 2.83922L19.2216 2.34233C18.9224 2.37585 18.5699 2.50391 18.0324 2.69363L18.1988 3.16512ZM21.5 5.50079H22C22 4.93075 22.0034 4.5557 21.9355 4.26239L21.4484 4.37527L20.9613 4.48815C20.9966 4.64045 21 4.86721 21 5.50079H21.5ZM19.2773 2.83922L19.333 3.33611C20.0894 3.25136 20.7894 3.74662 20.9613 4.48815L21.4484 4.37527L21.9355 4.2624C21.6491 3.02651 20.4824 2.20107 19.2216 2.34233L19.2773 2.83922ZM9.80122 3.16512L9.63481 3.63662C9.80584 3.69698 9.92082 3.73808 10.0376 3.76756L10.16 3.28277L10.2824 2.79798C10.2206 2.78239 10.1559 2.76008 9.96763 2.69363L9.80122 3.16512ZM11.6635 3.07836L11.454 2.62438C11.2727 2.70805 11.2104 2.73628 11.1503 2.75754L11.3173 3.22885L11.4842 3.70016C11.5977 3.65995 11.7084 3.60834 11.8731 3.53234L11.6635 3.07836ZM10.16 3.28277L10.0376 3.76756C10.5159 3.88831 11.0192 3.86486 11.4842 3.70016L11.3173 3.22885L11.1503 2.75754C10.8713 2.85636 10.5693 2.87043 10.2824 2.79798L10.16 3.28277ZM6.5 5.50079H7C7 4.86721 7.00343 4.64045 7.03872 4.48815L6.55163 4.37527L6.06454 4.2624C5.99657 4.5557 6 4.93075 6 5.50079H6.5ZM9.80122 3.16512L9.96763 2.69363C9.4301 2.50391 9.07756 2.37585 8.77836 2.34233L8.72269 2.83922L8.66702 3.33611C8.82238 3.35352 9.03736 3.42575 9.63481 3.63662L9.80122 3.16512ZM6.55163 4.37527L7.03872 4.48815C7.21056 3.74662 7.91057 3.25136 8.66702 3.33611L8.72269 2.83922L8.77836 2.34233C7.51761 2.20107 6.35094 3.02651 6.06454 4.2624L6.55163 4.37527ZM10.5 7.49999V7.99999H17.5V7.49999V6.99999H10.5V7.49999ZM10.5 12V12.5H12.25V12V11.5H10.5V12ZM6.5 12H6V19.5H6.5H7V12H6.5ZM1.5 19.5H2V13.167H1.5H1V19.5H1.5ZM5.15917 12.5363L5.34486 13.0006L6.6857 12.4642L6.5 12L6.3143 11.5357L4.97347 12.0721L5.15917 12.5363ZM2.92945 12.3577L2.67221 12.7864C3.48069 13.2715 4.46946 13.3507 5.34486 13.0006L5.15917 12.5363L4.97347 12.0721C4.38823 12.3062 3.7272 12.2532 3.1867 11.9289L2.92945 12.3577ZM4 22V21.5C2.89543 21.5 2 20.6046 2 19.5H1.5H1C1 21.1568 2.34315 22.5 4 22.5V22ZM6.5 19.5H6C6 20.6046 5.10457 21.5 4 21.5V22V22.5C5.65685 22.5 7 21.1568 7 19.5H6.5ZM1.5 13.167H2C2 12.822 2.37637 12.6089 2.67221 12.7864L2.92945 12.3577L3.1867 11.9289C2.22434 11.3515 1 12.0447 1 13.167H1.5Z" fill="#202124"/>
</svg>
