<svg width="24" height="24" viewBox="0 0 24 24" fill="none" xmlns="http://www.w3.org/2000/svg">
<path d="M19.4701 14.6448C19.4767 14.6125 19.5228 14.6125 19.5294 14.6448C19.8717 16.3193 21.1803 17.6279 22.8547 17.9701C22.887 17.9767 22.887 18.0228 22.8547 18.0294C21.1803 18.3717 19.8717 19.6803 19.5294 21.3547C19.5228 21.387 19.4767 21.387 19.4701 21.3547C19.1279 19.6803 17.8193 18.3717 16.1448 18.0294C16.1125 18.0228 16.1125 17.9767 16.1448 17.9701C17.8193 17.6279 19.1279 16.3193 19.4701 14.6448Z" fill="#FFE1BD" stroke="#FFE1BD"/>
<path d="M15.7187 10.3761C15.7813 10.07 16.2187 10.07 16.2812 10.3761C16.4194 11.0522 16.9478 11.5805 17.6239 11.7187C17.93 11.7813 17.93 12.2187 17.6239 12.2812C16.9478 12.4194 16.4194 12.9478 16.2812 13.6239C16.2187 13.93 15.7813 13.93 15.7187 13.6239C15.5805 12.9478 15.0522 12.4194 14.3761 12.2812C14.07 12.2187 14.07 11.7813 14.3761 11.7187C15.0522 11.5805 15.5805 11.0522 15.7187 10.3761Z" fill="#FFE1BD"/>
<path d="M11.6635 3.07827L11.454 2.62429L11.6635 3.07827ZM12.659 2.61881L12.8685 3.07279V3.07279L12.659 2.61881ZM15.341 2.61881L15.5505 2.16483L15.5505 2.16483L15.341 2.61881ZM16.3365 3.07827L16.1269 3.53224V3.53224L16.3365 3.07827ZM12.75 22.4999C13.0261 22.4999 13.25 22.276 13.25 21.9999C13.25 21.7238 13.0261 21.4999 12.75 21.4999V21.9999V22.4999ZM21 11.9999C21 12.276 21.2239 12.4999 21.5 12.4999C21.7761 12.4999 22 12.276 22 11.9999H21.5H21ZM13.6558 2.23248L13.7418 2.72502V2.72502L13.6558 2.23248ZM14.3442 2.23248L14.2582 2.72502V2.72502L14.3442 2.23248ZM16.6827 3.22876L16.5158 3.70007L16.5158 3.70007L16.6827 3.22876ZM18.1988 3.16503L18.3652 3.63653L18.3652 3.63653L18.1988 3.16503ZM17.84 3.28268L17.9624 3.76747L17.9624 3.76747L17.84 3.28268ZM19.2773 2.83913L19.2216 2.34224V2.34224L19.2773 2.83913ZM21.4484 4.37518L20.9613 4.48806L20.9613 4.48806L21.4484 4.37518ZM9.80122 3.16503L9.96763 2.69354V2.69354L9.80122 3.16503ZM10.16 3.28268L10.0376 3.76747V3.76747L10.16 3.28268ZM11.3173 3.22876L11.1503 2.75745L11.1503 2.75745L11.3173 3.22876ZM6.55163 4.37518L7.03872 4.48806V4.48806L6.55163 4.37518ZM8.72269 2.83913L8.66702 3.33602L8.66702 3.33602L8.72269 2.83913ZM10.5 6.9999C10.2239 6.9999 10 7.22375 10 7.4999C10 7.77604 10.2239 7.9999 10.5 7.9999V7.4999V6.9999ZM17.5 7.9999C17.7761 7.9999 18 7.77604 18 7.4999C18 7.22375 17.7761 6.9999 17.5 6.9999V7.4999V7.9999ZM10.5 11.4999C10.2239 11.4999 10 11.7238 10 11.9999C10 12.276 10.2239 12.4999 10.5 12.4999V11.9999V11.4999ZM12.25 12.4999C12.5261 12.4999 12.75 12.276 12.75 11.9999C12.75 11.7238 12.5261 11.4999 12.25 11.4999V11.9999V12.4999ZM2.92945 12.3576L3.1867 11.9288V11.9288L2.92945 12.3576ZM5.15917 12.5362L4.97347 12.072H4.97347L5.15917 12.5362ZM6.5 11.9999H7V5.5007H6.5H6V11.9999H6.5ZM11.6635 3.07827L11.8731 3.53225L12.8685 3.07279L12.659 2.61881L12.4495 2.16483L11.454 2.62429L11.6635 3.07827ZM15.341 2.61881L15.1315 3.07279L16.1269 3.53224L16.3365 3.07827L16.546 2.62429L15.5505 2.16483L15.341 2.61881ZM12.75 21.9999V21.4999H4V21.9999V22.4999H12.75V21.9999ZM21.5 5.5007H21V11.9999H21.5H22V5.5007H21.5ZM12.659 2.61881L12.8685 3.07279C13.3859 2.834 13.5641 2.75607 13.7418 2.72502L13.6558 2.23248L13.5697 1.73994C13.2334 1.79869 12.9185 1.94838 12.4495 2.16483L12.659 2.61881ZM15.341 2.61881L15.5505 2.16483C15.0815 1.94838 14.7666 1.79869 14.4303 1.73994L14.3442 2.23248L14.2582 2.72502C14.4359 2.75607 14.6141 2.83401 15.1315 3.07279L15.341 2.61881ZM13.6558 2.23248L13.7418 2.72502C13.9127 2.69518 14.0873 2.69518 14.2582 2.72502L14.3442 2.23248L14.4303 1.73994C14.1456 1.6902 13.8544 1.6902 13.5697 1.73994L13.6558 2.23248ZM16.3365 3.07827L16.1269 3.53224C16.2916 3.60825 16.4023 3.65986 16.5158 3.70007L16.6827 3.22876L16.8497 2.75745C16.7896 2.73618 16.7273 2.70796 16.546 2.62429L16.3365 3.07827ZM18.1988 3.16503L18.0324 2.69354C17.8441 2.75999 17.7794 2.7823 17.7176 2.79789L17.84 3.28268L17.9624 3.76747C18.0792 3.73799 18.1942 3.69689 18.3652 3.63653L18.1988 3.16503ZM16.6827 3.22876L16.5158 3.70007C16.9808 3.86477 17.4841 3.88822 17.9624 3.76747L17.84 3.28268L17.7176 2.79789C17.4307 2.87034 17.1287 2.85627 16.8497 2.75745L16.6827 3.22876ZM18.1988 3.16503L18.3652 3.63653C18.9626 3.42566 19.1776 3.35342 19.333 3.33602L19.2773 2.83913L19.2216 2.34224C18.9224 2.37576 18.5699 2.50382 18.0324 2.69354L18.1988 3.16503ZM21.5 5.5007H22C22 4.93066 22.0034 4.55561 21.9355 4.2623L21.4484 4.37518L20.9613 4.48806C20.9966 4.64036 21 4.86712 21 5.5007H21.5ZM19.2773 2.83913L19.333 3.33602C20.0894 3.25126 20.7894 3.74653 20.9613 4.48806L21.4484 4.37518L21.9355 4.2623C21.6491 3.02642 20.4824 2.20098 19.2216 2.34224L19.2773 2.83913ZM9.80122 3.16503L9.63481 3.63653C9.80584 3.69689 9.92082 3.73799 10.0376 3.76747L10.16 3.28268L10.2824 2.79789C10.2206 2.7823 10.1559 2.75999 9.96763 2.69354L9.80122 3.16503ZM11.6635 3.07827L11.454 2.62429C11.2727 2.70796 11.2104 2.73618 11.1503 2.75745L11.3173 3.22876L11.4842 3.70007C11.5977 3.65986 11.7084 3.60825 11.8731 3.53225L11.6635 3.07827ZM10.16 3.28268L10.0376 3.76747C10.5159 3.88822 11.0192 3.86477 11.4842 3.70007L11.3173 3.22876L11.1503 2.75745C10.8713 2.85627 10.5693 2.87034 10.2824 2.79789L10.16 3.28268ZM6.5 5.5007H7C7 4.86712 7.00343 4.64036 7.03872 4.48806L6.55163 4.37518L6.06454 4.2623C5.99657 4.55561 6 4.93066 6 5.5007H6.5ZM9.80122 3.16503L9.96763 2.69354C9.4301 2.50382 9.07756 2.37576 8.77836 2.34224L8.72269 2.83913L8.66702 3.33602C8.82238 3.35342 9.03736 3.42566 9.63481 3.63653L9.80122 3.16503ZM6.55163 4.37518L7.03872 4.48806C7.21056 3.74653 7.91057 3.25126 8.66702 3.33602L8.72269 2.83913L8.77836 2.34224C7.51761 2.20098 6.35094 3.02642 6.06454 4.2623L6.55163 4.37518ZM10.5 7.4999V7.9999H17.5V7.4999V6.9999H10.5V7.4999ZM10.5 11.9999V12.4999H12.25V11.9999V11.4999H10.5V11.9999ZM6.5 11.9999H6V19.4999H6.5H7V11.9999H6.5ZM1.5 19.4999H2V13.1669H1.5H1V19.4999H1.5ZM5.15917 12.5362L5.34486 13.0005L6.6857 12.4641L6.5 11.9999L6.3143 11.5357L4.97347 12.072L5.15917 12.5362ZM2.92945 12.3576L2.67221 12.7863C3.48069 13.2714 4.46946 13.3506 5.34486 13.0005L5.15917 12.5362L4.97347 12.072C4.38823 12.3061 3.7272 12.2531 3.1867 11.9288L2.92945 12.3576ZM4 21.9999V21.4999C2.89543 21.4999 2 20.6045 2 19.4999H1.5H1C1 21.1567 2.34315 22.4999 4 22.4999V21.9999ZM6.5 19.4999H6C6 20.6045 5.10457 21.4999 4 21.4999V21.9999V22.4999C5.65685 22.4999 7 21.1567 7 19.4999H6.5ZM1.5 13.1669H2C2 12.8219 2.37637 12.6088 2.67221 12.7863L2.92945 12.3576L3.1867 11.9288C2.22434 11.3514 1 12.0446 1 13.1669H1.5Z" fill="white"/>
</svg>
