<svg width="24" height="24" viewBox="0 0 24 24" fill="none" xmlns="http://www.w3.org/2000/svg">
<path d="M18 8.5H15.8363C14.8999 8.5 14.4317 8.5 14.0224 8.35321C13.6607 8.22345 13.3337 8.01203 13.0669 7.73537C12.7651 7.4224 12.5729 6.99542 12.1887 6.14146L12.0613 5.85854C11.6771 5.00458 11.4849 4.5776 11.1831 4.26463C10.9163 3.98797 10.5893 3.77655 10.2276 3.64679C9.81832 3.5 9.3501 3.5 8.41366 3.5H7.25C6.55329 3.5 6.20494 3.5 5.91308 3.54329C4.17025 3.80182 2.80182 5.17025 2.54329 6.91308C2.5 7.20494 2.5 7.5533 2.5 8.25V14.1C2.5 16.3402 2.5 17.4603 2.93597 18.316C3.31947 19.0686 3.93139 19.6805 4.68404 20.064C5.53969 20.5 6.65979 20.5 8.9 20.5H12M21.5 12.5V10.75C21.5 8.65118 21.5 7.60177 21.116 6.78978C20.7203 5.95321 20.0468 5.27971 19.2102 4.88404C18.3982 4.5 17.3488 4.5 15.25 4.5" stroke="white" stroke-linecap="round"/>
<path d="M17.9701 13.6448C17.9767 13.6125 18.0228 13.6125 18.0294 13.6448C18.3717 15.3193 19.6803 16.6279 21.3547 16.9701C21.387 16.9767 21.387 17.0228 21.3547 17.0294C19.6803 17.3717 18.3717 18.6803 18.0294 20.3547C18.0228 20.387 17.9767 20.387 17.9701 20.3547C17.6279 18.6803 16.3193 17.3717 14.6448 17.0294C14.6125 17.0228 14.6125 16.9767 14.6448 16.9701C16.3193 16.6279 17.6279 15.3193 17.9701 13.6448Z" fill="#FFE1BD" stroke="#FFE1BD"/>
<path d="M11.6717 11.6053C11.7447 11.2481 12.255 11.2481 12.328 11.6053C12.4892 12.394 13.1056 13.0105 13.8944 13.1717C14.2515 13.2447 14.2515 13.755 13.8944 13.828C13.1056 13.9892 12.4892 14.6056 12.328 15.3944C12.255 15.7515 11.7447 15.7515 11.6717 15.3944C11.5105 14.6056 10.894 13.9892 10.1053 13.828C9.74812 13.755 9.74812 13.2447 10.1053 13.1717C10.894 13.0105 11.5105 12.394 11.6717 11.6053Z" fill="#FFE1BD"/>
</svg>
