<svg width="24" height="24" viewBox="0 0 24 24" fill="none" xmlns="http://www.w3.org/2000/svg">
<path d="M18 8.5H15.8363C14.8999 8.5 14.4317 8.5 14.0224 8.35321C13.6607 8.22345 13.3337 8.01203 13.0669 7.73537C12.7651 7.4224 12.5729 6.99542 12.1887 6.14146L12.0613 5.85854C11.6771 5.00458 11.4849 4.5776 11.1831 4.26463C10.9163 3.98797 10.5893 3.77655 10.2276 3.64679C9.81832 3.5 9.3501 3.5 8.41366 3.5H7.25C6.55329 3.5 6.20494 3.5 5.91308 3.54329C4.17025 3.80182 2.80182 5.17025 2.54329 6.91308C2.5 7.20494 2.5 7.5533 2.5 8.25V14.1C2.5 16.3402 2.5 17.4603 2.93597 18.316C3.31947 19.0686 3.93139 19.6805 4.68404 20.064C5.53969 20.5 6.65979 20.5 8.9 20.5H12M21.5 12.5V10.75C21.5 8.65118 21.5 7.60177 21.116 6.78978C20.7203 5.95321 20.0468 5.27971 19.2102 4.88404C18.3982 4.5 17.3488 4.5 15.25 4.5" stroke="#202124" stroke-linecap="round"/>
<path d="M17.9704 13.645C17.977 13.6128 18.0231 13.6128 18.0297 13.645C18.3719 15.3195 19.6805 16.6281 21.355 16.9704C21.3873 16.977 21.3873 17.0231 21.355 17.0297C19.6805 17.3719 18.3719 18.6805 18.0297 20.355C18.0231 20.3873 17.977 20.3873 17.9704 20.355C17.6281 18.6805 16.3195 17.3719 14.645 17.0297C14.6128 17.0231 14.6128 16.977 14.645 16.9704C16.3195 16.6281 17.6281 15.3195 17.9704 13.645Z" stroke="#4EBEE5"/>
<path d="M11.6719 11.6054C11.7449 11.2483 12.2552 11.2483 12.3282 11.6054C12.4894 12.3942 13.1058 13.0106 13.8946 13.1719C14.2518 13.2449 14.2518 13.7551 13.8946 13.8281C13.1058 13.9894 12.4894 14.6058 12.3282 15.3946C12.2552 15.7517 11.7449 15.7517 11.6719 15.3946C11.5107 14.6058 10.8943 13.9894 10.1055 13.8281C9.74836 13.7551 9.74836 13.2449 10.1055 13.1719C10.8943 13.0106 11.5107 12.3942 11.6719 11.6054Z" fill="#4EBEE5"/>
</svg>
