<svg width="24" height="24" viewBox="0 0 24 24" fill="none" xmlns="http://www.w3.org/2000/svg">
<path d="M5.46858 7.79329C5.3643 7.2831 4.63532 7.28309 4.53104 7.79329C4.30072 8.92012 3.42012 9.80072 2.29329 10.031C1.7831 10.1353 1.78309 10.8643 2.29329 10.9686C3.42012 11.1989 4.30072 12.0795 4.53104 13.2063C4.63532 13.7165 5.3643 13.7165 5.46858 13.2063C5.69889 12.0795 6.5795 11.1989 7.70632 10.9686C8.21652 10.8643 8.21652 10.1353 7.70632 10.031C6.5795 9.80072 5.69889 8.92012 5.46858 7.79329Z" fill="#FFE1BD"/>
<path d="M1.71872 3.87607C1.78129 3.56995 2.21868 3.56995 2.28124 3.87607C2.41943 4.55217 2.9478 5.08053 3.62389 5.21872C3.93001 5.28129 3.93001 5.71868 3.62389 5.78124C2.9478 5.91943 2.41943 6.4478 2.28124 7.12389C2.21868 7.43001 1.78129 7.43001 1.71872 7.12389C1.58053 6.4478 1.05217 5.91943 0.376074 5.78124C0.0699546 5.71868 0.0699546 5.28129 0.376074 5.21872C1.05217 5.08053 1.58053 4.55217 1.71872 3.87607Z" fill="#FFE1BD"/>
<path d="M13.4965 5.07956C14.2836 3.94261 14.6772 3.37414 15.1879 3.13367C15.636 2.9227 16.1442 2.87687 16.6227 3.00429C17.1682 3.14952 17.6572 3.63844 18.635 4.61628C19.2189 5.20016 19.782 5.76329 20.3659 6.34717C21.3437 7.32502 21.8327 7.81394 21.9779 8.35942C22.1053 8.83801 22.0595 9.34622 21.8485 9.79429C21.608 10.305 21.0396 10.6986 19.9026 11.4857L18.3867 12.5351L12.4471 6.59542L13.4965 5.07956Z" fill="#FFE1BD"/>
<path d="M9.10878 21.1622L9.1341 21.6615V21.6615L9.10878 21.1622ZM13.9754 20.9154L13.9501 20.416V20.416L13.9754 20.9154ZM18.5804 17.2158L18.0982 17.0835V17.0835L18.5804 17.2158ZM18.7711 16.5208L19.2533 16.6532V16.6532L18.7711 16.5208ZM17.4747 11.6231L17.1211 11.9766V11.9766L17.4747 11.6231ZM13.3591 7.50748L13.7126 7.15393V7.15393L13.3591 7.50748ZM8.46134 6.21103L8.59367 6.6932H8.59367L8.46134 6.21103ZM7.6369 5.91882C7.37061 5.9919 7.21398 6.26702 7.28707 6.53332C7.36015 6.79961 7.63527 6.95624 7.90157 6.88315L7.76923 6.40099L7.6369 5.91882ZM4.33691 15.5528C4.35089 15.277 4.13866 15.0421 3.86287 15.0281C3.58708 15.0141 3.35218 15.2264 3.33819 15.5022L3.83755 15.5275L4.33691 15.5528ZM3.82001 15.8734L3.32065 15.8481V15.8481L3.82001 15.8734ZM11.7797 6.14861L12.0058 5.70269L12.0058 5.70269L11.7797 6.14861ZM10.5062 5.81152L10.4822 6.31094V6.31094L10.5062 5.81152ZM19.1707 14.476L18.6712 14.5V14.5L19.1707 14.476ZM18.8336 13.2025L19.2795 12.9763L19.2795 12.9763L18.8336 13.2025ZM16.4836 20.5682L16.6904 21.0235H16.6904L16.4836 20.5682ZM17.7009 19.5903L18.1009 19.8903H18.1009L17.7009 19.5903ZM5.48712 20.9572L5.2692 21.4072H5.2692L5.48712 20.9572ZM4.02495 19.4951L3.57494 19.713H3.57494L4.02495 19.4951ZM5.04009 19.2349C4.84483 19.4302 4.84483 19.7468 5.04009 19.942C5.23536 20.1373 5.55194 20.1373 5.7472 19.942L5.39365 19.5885L5.04009 19.2349ZM10.5732 15.116C10.7685 14.9207 10.7685 14.6042 10.5732 14.4089C10.3779 14.2136 10.0614 14.2136 9.8661 14.4089L10.2197 14.7625L10.5732 15.116ZM18.3867 12.5351L18.0332 12.8887L18.3283 13.1837L18.6714 12.9462L18.3867 12.5351ZM12.4471 6.59542L12.036 6.31082L11.7984 6.65391L12.0935 6.94897L12.4471 6.59542ZM21.9779 8.35942L22.4611 8.23079V8.23079L21.9779 8.35942ZM19.9026 11.4857L19.618 11.0746V11.0746L19.9026 11.4857ZM21.8485 9.79429L21.3961 9.58129V9.58129L21.8485 9.79429ZM16.6227 3.00429L16.7514 2.52112V2.52112L16.6227 3.00429ZM13.4965 5.07956L13.9076 5.36416V5.36416L13.4965 5.07956ZM15.1879 3.13367L15.4009 3.58603V3.58603L15.1879 3.13367ZM9.10878 21.1622L9.1341 21.6615L14.0007 21.4148L13.9754 20.9154L13.9501 20.416L9.08346 20.6628L9.10878 21.1622ZM18.5804 17.2158L19.0626 17.3481L19.2533 16.6532L18.7711 16.5208L18.289 16.3885L18.0982 17.0835L18.5804 17.2158ZM17.4747 11.6231L17.8282 11.2695L13.7126 7.15393L13.3591 7.50748L13.0055 7.86104L17.1211 11.9766L17.4747 11.6231ZM8.46134 6.21103L8.329 5.72886L7.6369 5.91882L7.76923 6.40099L7.90157 6.88315L8.59367 6.6932L8.46134 6.21103ZM3.83755 15.5275L3.33819 15.5022L3.32065 15.8481L3.82001 15.8734L4.31937 15.8987L4.33691 15.5528L3.83755 15.5275ZM13.3591 7.50748L13.7126 7.15393C12.9821 6.42339 12.5413 5.97431 12.0058 5.70269L11.7797 6.14861L11.5535 6.59452C11.9131 6.77695 12.2269 7.08244 13.0055 7.86104L13.3591 7.50748ZM8.46134 6.21103L8.59367 6.6932C9.65551 6.40178 10.0794 6.29154 10.4822 6.31094L10.5062 5.81152L10.5303 5.3121C9.93053 5.28322 9.32531 5.45542 8.329 5.72886L8.46134 6.21103ZM11.7797 6.14861L12.0058 5.70269C11.547 5.46995 11.0442 5.33684 10.5303 5.3121L10.5062 5.81152L10.4822 6.31094C10.8553 6.32891 11.2203 6.42555 11.5535 6.59452L11.7797 6.14861ZM18.7711 16.5208L19.2533 16.6532C19.5268 15.6569 19.699 15.0517 19.6701 14.4519L19.1707 14.476L18.6712 14.5C18.6906 14.9028 18.5804 15.3267 18.289 16.3885L18.7711 16.5208ZM17.4747 11.6231L17.1211 11.9766C17.8997 12.7552 18.2052 13.0691 18.3877 13.4287L18.8336 13.2025L19.2795 12.9763C19.0079 12.4409 18.5588 12.0001 17.8282 11.2695L17.4747 11.6231ZM19.1707 14.476L19.6701 14.4519C19.6453 13.938 19.5122 13.4352 19.2795 12.9763L18.8336 13.2025L18.3877 13.4287C18.5566 13.7618 18.6533 14.1269 18.6712 14.5L19.1707 14.476ZM13.9754 20.9154L14.0007 21.4148C15.2667 21.3506 16.0378 21.3199 16.6904 21.0235L16.4836 20.5682L16.2769 20.113C15.8392 20.3118 15.3016 20.3475 13.9501 20.416L13.9754 20.9154ZM18.5804 17.2158L18.0982 17.0835C17.7401 18.3884 17.5893 18.9058 17.3009 19.2903L17.7009 19.5903L18.1009 19.8903C18.531 19.3169 18.7271 18.5705 19.0626 17.3481L18.5804 17.2158ZM16.4836 20.5682L16.6904 21.0235C17.2482 20.7701 17.7333 20.3804 18.1009 19.8903L17.7009 19.5903L17.3009 19.2903C17.034 19.6461 16.6819 19.9291 16.2769 20.113L16.4836 20.5682ZM9.10878 21.1622L9.08346 20.6628C8.10972 20.7122 7.41073 20.7472 6.86353 20.7286C6.32157 20.7102 5.97829 20.6395 5.70504 20.5072L5.48712 20.9572L5.2692 21.4072C5.72235 21.6267 6.2248 21.7075 6.82953 21.728C7.42902 21.7484 8.17766 21.71 9.1341 21.6615L9.10878 21.1622ZM3.82001 15.8734L3.32065 15.8481C3.27215 16.8045 3.23377 17.5532 3.25416 18.1526C3.27472 18.7574 3.3555 19.2598 3.57494 19.713L4.02495 19.4951L4.47496 19.2771C4.34264 19.0039 4.27201 18.6606 4.25358 18.1187C4.23497 17.5715 4.26999 16.8725 4.31937 15.8987L3.82001 15.8734ZM5.48712 20.9572L5.70504 20.5072C5.16828 20.2473 4.73489 19.8139 4.47496 19.2771L4.02495 19.4951L3.57494 19.713C3.93296 20.4523 4.52989 21.0492 5.2692 21.4072L5.48712 20.9572ZM5.39365 19.5885L5.7472 19.942L10.5732 15.116L10.2197 14.7625L9.8661 14.4089L5.04009 19.2349L5.39365 19.5885ZM18.635 4.61628L18.2814 4.96983C18.5734 5.26177 18.8601 5.54853 19.1469 5.83528C19.4336 6.12203 19.7204 6.40879 20.0123 6.70073L20.3659 6.34717L20.7194 5.99362C20.4275 5.70168 20.1407 5.41493 19.854 5.12817C19.5672 4.84142 19.2805 4.55466 18.9885 4.26272L18.635 4.61628ZM19.9026 11.4857L19.618 11.0746L18.1021 12.124L18.3867 12.5351L18.6714 12.9462L20.1872 11.8968L19.9026 11.4857ZM18.3867 12.5351L18.7403 12.1816L12.8006 6.24187L12.4471 6.59542L12.0935 6.94897L18.0332 12.8887L18.3867 12.5351ZM12.4471 6.59542L12.8581 6.88003L13.9076 5.36416L13.4965 5.07956L13.0854 4.79495L12.036 6.31082L12.4471 6.59542ZM20.3659 6.34717L20.0123 6.70073C20.5076 7.19598 20.8559 7.54492 21.1013 7.83702C21.3437 8.12566 21.4494 8.31792 21.4947 8.48806L21.9779 8.35942L22.4611 8.23079C22.3611 7.85544 22.1498 7.5305 21.867 7.19384C21.5871 6.86066 21.202 6.47621 20.7194 5.99362L20.3659 6.34717ZM19.9026 11.4857L20.1872 11.8968C20.7483 11.5083 21.1959 11.199 21.5309 10.9212C21.8693 10.6406 22.1354 10.3587 22.3009 10.0073L21.8485 9.79429L21.3961 9.58129C21.3211 9.74059 21.1827 9.91083 20.8926 10.1514C20.5989 10.3949 20.1938 10.6759 19.618 11.0746L19.9026 11.4857ZM21.9779 8.35942L21.4947 8.48806C21.5918 8.8527 21.5569 9.23991 21.3961 9.58129L21.8485 9.79429L22.3009 10.0073C22.5621 9.45253 22.6188 8.82331 22.4611 8.23079L21.9779 8.35942ZM18.635 4.61628L18.9885 4.26272C18.506 3.78013 18.1215 3.39506 17.7883 3.1152C17.4517 2.83242 17.1267 2.62105 16.7514 2.52112L16.6227 3.00429L16.4941 3.48746C16.6642 3.53275 16.8565 3.63846 17.1451 3.88091C17.4373 4.12627 17.7862 4.47458 18.2814 4.96983L18.635 4.61628ZM13.4965 5.07956L13.9076 5.36416C14.3062 4.78833 14.5872 4.38323 14.8307 4.08959C15.0713 3.79943 15.2416 3.66104 15.4009 3.58603L15.1879 3.13367L14.9749 2.6813C14.6235 2.84677 14.3416 3.11285 14.061 3.45128C13.7832 3.78622 13.4739 4.23384 13.0854 4.79495L13.4965 5.07956ZM16.6227 3.00429L16.7514 2.52112C16.1589 2.36336 15.5296 2.4201 14.9749 2.6813L15.1879 3.13367L15.4009 3.58603C15.7423 3.42529 16.1295 3.39038 16.4941 3.48746L16.6227 3.00429Z" fill="white"/>
</svg>
