<svg width="24" height="24" viewBox="0 0 24 24" fill="none" xmlns="http://www.w3.org/2000/svg">
<path d="M5.46882 7.79348C5.36454 7.28329 4.63556 7.28329 4.53128 7.79348C4.30097 8.92031 3.42036 9.80091 2.29354 10.0312C1.78334 10.1355 1.78334 10.8645 2.29354 10.9688C3.42036 11.1991 4.30097 12.0797 4.53128 13.2065C4.63556 13.7167 5.36454 13.7167 5.46882 13.2065C5.69914 12.0797 6.57974 11.1991 7.70657 10.9688C8.21676 10.8645 8.21676 10.1355 7.70657 10.0312C6.57974 9.80091 5.69914 8.92031 5.46882 7.79348Z" fill="#4EBEE5"/>
<path d="M1.71872 3.87609C1.78129 3.56997 2.21868 3.56997 2.28124 3.87609C2.41943 4.55218 2.9478 5.08055 3.62389 5.21874C3.93001 5.2813 3.93001 5.71869 3.62389 5.78126C2.9478 5.91945 2.41943 6.44781 2.28124 7.12391C2.21868 7.43003 1.78129 7.43003 1.71872 7.12391C1.58053 6.44781 1.05217 5.91945 0.376074 5.78126C0.0699546 5.71869 0.0699546 5.2813 0.376074 5.21874C1.05217 5.08055 1.58053 4.55218 1.71872 3.87609Z" fill="#4EBEE5"/>
<path d="M13.4963 5.07967C14.2834 3.94272 14.6769 3.37425 15.1876 3.13378C15.6357 2.92281 16.1439 2.87698 16.6225 3.0044C17.168 3.14963 17.6569 3.63855 18.6347 4.61639C19.2186 5.20027 19.7818 5.76341 20.3656 6.34729C21.3435 7.32513 21.8324 7.81405 21.9776 8.35954C22.1051 8.83812 22.0592 9.34633 21.8483 9.7944C21.6078 10.3051 21.0393 10.6987 19.9024 11.4858L18.3865 12.5352L12.4468 6.59553L13.4963 5.07967Z" fill="#4EBEE5"/>
<path d="M9.10854 21.1623L9.13386 21.6616V21.6616L9.10854 21.1623ZM13.9751 20.9155L13.9498 20.4162V20.4162L13.9751 20.9155ZM18.5802 17.2159L18.098 17.0836V17.0836L18.5802 17.2159ZM18.7709 16.521L19.2531 16.6533V16.6533L18.7709 16.521ZM17.4745 11.6232L17.1209 11.9768V11.9768L17.4745 11.6232ZM13.3588 7.5076L13.7124 7.15405V7.15405L13.3588 7.5076ZM8.46109 6.21115L8.59343 6.69332H8.59343L8.46109 6.21115ZM7.63666 5.91893C7.37036 5.99202 7.21373 6.26714 7.28682 6.53343C7.35991 6.79973 7.63503 6.95636 7.90132 6.88327L7.76899 6.4011L7.63666 5.91893ZM4.33666 15.5529C4.35065 15.2771 4.13841 15.0422 3.86263 15.0282C3.58684 15.0143 3.35193 15.2265 3.33795 15.5023L3.8373 15.5276L4.33666 15.5529ZM3.81976 15.8735L3.32041 15.8482V15.8482L3.81976 15.8735ZM11.7794 6.14872L12.0056 5.70281L12.0056 5.70281L11.7794 6.14872ZM10.506 5.81163L10.4819 6.31105V6.31105L10.506 5.81163ZM19.1704 14.4761L18.671 14.5001V14.5001L19.1704 14.4761ZM18.8333 13.2026L19.2792 12.9764L19.2792 12.9764L18.8333 13.2026ZM16.4834 20.5683L16.6902 21.0236H16.6902L16.4834 20.5683ZM17.7007 19.5904L18.1006 19.8904H18.1006L17.7007 19.5904ZM5.48688 20.9573L5.26896 21.4074H5.26896L5.48688 20.9573ZM4.02471 19.4952L3.57469 19.7131H3.57469L4.02471 19.4952ZM5.03985 19.235C4.84459 19.4303 4.84459 19.7469 5.03985 19.9421C5.23511 20.1374 5.55169 20.1374 5.74696 19.9421L5.3934 19.5886L5.03985 19.235ZM10.573 15.1161C10.7682 14.9209 10.7682 14.6043 10.573 14.409C10.3777 14.2138 10.0611 14.2138 9.86585 14.409L10.2194 14.7626L10.573 15.1161ZM18.3865 12.5352L18.033 12.8888L18.328 13.1839L18.6711 12.9463L18.3865 12.5352ZM12.4468 6.59553L12.0357 6.31093L11.7982 6.65402L12.0933 6.94909L12.4468 6.59553ZM21.9776 8.35954L22.4608 8.2309V8.2309L21.9776 8.35954ZM19.9024 11.4858L19.6178 11.0747V11.0747L19.9024 11.4858ZM21.8483 9.7944L21.3959 9.58141V9.58141L21.8483 9.7944ZM16.6225 3.0044L16.7511 2.52123V2.52123L16.6225 3.0044ZM13.4963 5.07967L13.9073 5.36428V5.36428L13.4963 5.07967ZM15.1876 3.13378L15.4006 3.58615V3.58615L15.1876 3.13378ZM9.10854 21.1623L9.13386 21.6616L14.0005 21.4149L13.9751 20.9155L13.9498 20.4162L9.08322 20.6629L9.10854 21.1623ZM18.5802 17.2159L19.0623 17.3482L19.2531 16.6533L18.7709 16.521L18.2887 16.3886L18.098 17.0836L18.5802 17.2159ZM17.4745 11.6232L17.828 11.2697L13.7124 7.15405L13.3588 7.5076L13.0053 7.86115L17.1209 11.9768L17.4745 11.6232ZM8.46109 6.21115L8.32876 5.72898L7.63666 5.91893L7.76899 6.4011L7.90132 6.88327L8.59343 6.69332L8.46109 6.21115ZM3.8373 15.5276L3.33795 15.5023L3.32041 15.8482L3.81976 15.8735L4.31912 15.8988L4.33666 15.5529L3.8373 15.5276ZM13.3588 7.5076L13.7124 7.15405C12.9818 6.4235 12.5411 5.97442 12.0056 5.70281L11.7794 6.14872L11.5532 6.59464C11.9129 6.77706 12.2267 7.08255 13.0053 7.86115L13.3588 7.5076ZM8.46109 6.21115L8.59343 6.69332C9.65527 6.40189 10.0791 6.29166 10.4819 6.31105L10.506 5.81163L10.53 5.31221C9.93028 5.28333 9.32506 5.45554 8.32876 5.72898L8.46109 6.21115ZM11.7794 6.14872L12.0056 5.70281C11.5468 5.47007 11.0439 5.33696 10.53 5.31221L10.506 5.81163L10.4819 6.31105C10.855 6.32902 11.2201 6.42566 11.5532 6.59464L11.7794 6.14872ZM18.7709 16.521L19.2531 16.6533C19.5265 15.657 19.6987 15.0518 19.6698 14.452L19.1704 14.4761L18.671 14.5001C18.6904 14.9029 18.5802 15.3268 18.2887 16.3886L18.7709 16.521ZM17.4745 11.6232L17.1209 11.9768C17.8995 12.7554 18.205 13.0692 18.3874 13.4288L18.8333 13.2026L19.2792 12.9764C19.0076 12.441 18.5585 12.0002 17.828 11.2697L17.4745 11.6232ZM19.1704 14.4761L19.6698 14.452C19.6451 13.9381 19.512 13.4353 19.2792 12.9764L18.8333 13.2026L18.3874 13.4288C18.5564 13.7619 18.653 14.127 18.671 14.5001L19.1704 14.4761ZM13.9751 20.9155L14.0005 21.4149C15.2664 21.3507 16.0375 21.32 16.6902 21.0236L16.4834 20.5683L16.2766 20.1131C15.839 20.3119 15.3013 20.3476 13.9498 20.4162L13.9751 20.9155ZM18.5802 17.2159L18.098 17.0836C17.7398 18.3885 17.5891 18.9059 17.3007 19.2904L17.7007 19.5904L18.1006 19.8904C18.5308 19.317 18.7268 18.5706 19.0623 17.3482L18.5802 17.2159ZM16.4834 20.5683L16.6902 21.0236C17.248 20.7702 17.733 20.3805 18.1006 19.8904L17.7007 19.5904L17.3007 19.2904C17.0338 19.6462 16.6816 19.9292 16.2766 20.1131L16.4834 20.5683ZM9.10854 21.1623L9.08322 20.6629C8.10948 20.7123 7.41048 20.7473 6.86328 20.7287C6.32132 20.7103 5.97804 20.6397 5.7048 20.5073L5.48688 20.9573L5.26896 21.4074C5.7221 21.6268 6.22456 21.7076 6.82929 21.7281C7.42878 21.7485 8.17742 21.7101 9.13386 21.6616L9.10854 21.1623ZM3.81976 15.8735L3.32041 15.8482C3.27191 16.8046 3.23352 17.5533 3.25391 18.1528C3.27448 18.7575 3.35526 19.2599 3.57469 19.7131L4.02471 19.4952L4.47472 19.2773C4.3424 19.004 4.27177 18.6607 4.25333 18.1188C4.23472 17.5716 4.26975 16.8726 4.31912 15.8988L3.81976 15.8735ZM5.48688 20.9573L5.7048 20.5073C5.16804 20.2474 4.73465 19.814 4.47472 19.2773L4.02471 19.4952L3.57469 19.7131C3.93271 20.4524 4.52964 21.0493 5.26896 21.4074L5.48688 20.9573ZM5.3934 19.5886L5.74696 19.9421L10.573 15.1161L10.2194 14.7626L9.86585 14.409L5.03985 19.235L5.3934 19.5886ZM18.6347 4.61639L18.2812 4.96995C18.5731 5.26189 18.8599 5.54864 19.1466 5.83539C19.4334 6.12215 19.7202 6.4089 20.0121 6.70084L20.3656 6.34729L20.7192 5.99373C20.4273 5.70179 20.1405 5.41504 19.8538 5.12829C19.567 4.84153 19.2802 4.55478 18.9883 4.26284L18.6347 4.61639ZM19.9024 11.4858L19.6178 11.0747L18.1019 12.1241L18.3865 12.5352L18.6711 12.9463L20.187 11.8969L19.9024 11.4858ZM18.3865 12.5352L18.7401 12.1817L12.8004 6.24198L12.4468 6.59553L12.0933 6.94909L18.033 12.8888L18.3865 12.5352ZM12.4468 6.59553L12.8579 6.88014L13.9073 5.36428L13.4963 5.07967L13.0852 4.79507L12.0357 6.31093L12.4468 6.59553ZM20.3656 6.34729L20.0121 6.70084C20.5073 7.19609 20.8557 7.54503 21.101 7.83714C21.3435 8.12578 21.4492 8.31804 21.4945 8.48818L21.9776 8.35954L22.4608 8.2309C22.3609 7.85555 22.1495 7.53061 21.8667 7.19396C21.5869 6.86077 21.2018 6.47633 20.7192 5.99373L20.3656 6.34729ZM19.9024 11.4858L20.187 11.8969C20.7481 11.5084 21.1957 11.1991 21.5306 10.9213C21.8691 10.6407 22.1352 10.3588 22.3006 10.0074L21.8483 9.7944L21.3959 9.58141C21.3209 9.7407 21.1825 9.91095 20.8923 10.1516C20.5987 10.395 20.1936 10.676 19.6178 11.0747L19.9024 11.4858ZM21.9776 8.35954L21.4945 8.48818C21.5915 8.85281 21.5566 9.24002 21.3959 9.58141L21.8483 9.7944L22.3006 10.0074C22.5618 9.45265 22.6186 8.82343 22.4608 8.2309L21.9776 8.35954ZM18.6347 4.61639L18.9883 4.26284C18.5057 3.78025 18.1213 3.39518 17.7881 3.11531C17.4514 2.83253 17.1265 2.62116 16.7511 2.52123L16.6225 3.0044L16.4939 3.48757C16.664 3.53287 16.8563 3.63858 17.1449 3.88103C17.437 4.12639 17.7859 4.47469 18.2812 4.96995L18.6347 4.61639ZM13.4963 5.07967L13.9073 5.36428C14.306 4.78844 14.587 4.38335 14.8305 4.0897C15.0711 3.79954 15.2413 3.66115 15.4006 3.58615L15.1876 3.13378L14.9746 2.68142C14.6232 2.84688 14.3413 3.11296 14.0607 3.45139C13.783 3.78634 13.4736 4.23395 13.0852 4.79507L13.4963 5.07967ZM16.6225 3.0044L16.7511 2.52123C16.1586 2.36348 15.5294 2.42021 14.9746 2.68142L15.1876 3.13378L15.4006 3.58615C15.742 3.4254 16.1292 3.39049 16.4939 3.48757L16.6225 3.0044Z" fill="#2D2D2D"/>
</svg>
