<svg width="24" height="24" viewBox="0 0 24 24" fill="none" xmlns="http://www.w3.org/2000/svg">
<path d="M7.02987 2.1448C7.02327 2.11254 6.97718 2.11254 6.97058 2.1448C6.62833 3.81929 5.31974 5.12788 3.64525 5.47013C3.61299 5.47673 3.61299 5.52282 3.64525 5.52942C5.31974 5.87167 6.62833 7.18026 6.97058 8.85475C6.97718 8.88701 7.02327 8.88701 7.02987 8.85475C7.37212 7.18026 8.68071 5.87167 10.3552 5.52942C10.3875 5.52282 10.3875 5.47673 10.3552 5.47013C8.68071 5.12788 7.37212 3.81929 7.02987 2.1448Z" fill="#FFE1BD" stroke="#FFE1BD"/>
<path d="M1.71876 0.376074C1.78132 0.0699546 2.21871 0.0699546 2.28128 0.376074C2.41947 1.05217 2.94783 1.58053 3.62393 1.71872C3.93005 1.78129 3.93005 2.21868 3.62393 2.28124C2.94783 2.41943 2.41947 2.9478 2.28128 3.62389C2.21871 3.93001 1.78132 3.93001 1.71876 3.62389C1.58057 2.9478 1.0522 2.41943 0.376109 2.28124C0.0699897 2.21868 0.0699897 1.78129 0.376109 1.71872C1.0522 1.58053 1.58057 1.05217 1.71876 0.376074Z" fill="#FFE1BD"/>
<path d="M12 3.5C11.7239 3.5 11.5 3.27614 11.5 3C11.5 2.72386 11.7239 2.5 12 2.5V3V3.5ZM20.4013 15.2344L20.8679 15.4141H20.8679L20.4013 15.2344ZM20.4702 19.5155L20.9624 19.4276H20.9624L20.4702 19.5155ZM20.109 17.4926L20.6012 17.4047V17.4047L20.109 17.4926ZM19.249 20.7452L19.3334 20.2524H19.3334L19.249 20.7452ZM16.8576 20.3352L16.7731 20.8281H16.7731L16.8576 20.3352ZM14.8243 20.5479L14.6675 20.0731L14.6675 20.0731L14.8243 20.5479ZM16.1548 20.2378L16.1663 19.738H16.1663L16.1548 20.2378ZM15.7426 20.2686L15.6568 19.776H15.6568L15.7426 20.2686ZM20.0411 16.248L20.5306 16.3495V16.3495L20.0411 16.248ZM19.9972 16.7062L20.4971 16.6995V16.6995L19.9972 16.7062ZM3.00831 8.92655C3.09761 8.66525 3.38183 8.5258 3.64313 8.6151C3.90444 8.70439 4.04388 8.98861 3.95459 9.24992L3.48145 9.08824L3.00831 8.92655ZM14.2428 14.0713C14.4795 13.9292 14.7867 14.006 14.9287 14.2428C15.0708 14.4795 14.994 14.7867 14.7572 14.9287L14.5 14.5L14.2428 14.0713ZM9.24275 14.9287C9.00596 14.7867 8.92918 14.4795 9.07125 14.2428C9.21333 14.006 9.52046 13.9292 9.75725 14.0713L9.5 14.5L9.24275 14.9287ZM3 12H3.5C3.5 16.6944 7.30558 20.5 12 20.5V21V21.5C6.75329 21.5 2.5 17.2467 2.5 12H3ZM21 12H20.5C20.5 7.30558 16.6944 3.5 12 3.5V3V2.5C17.2467 2.5 21.5 6.7533 21.5 12H21ZM20.4013 15.2344L19.9348 15.0546C20.2997 14.1073 20.5 13.0776 20.5 12H21H21.5C21.5 13.2025 21.2763 14.3539 20.8679 15.4141L20.4013 15.2344ZM20.4702 19.5155L19.978 19.6034L19.6168 17.5805L20.109 17.4926L20.6012 17.4047L20.9624 19.4276L20.4702 19.5155ZM19.249 20.7452L19.3334 20.2524C19.7151 20.3178 20.0461 19.9846 19.978 19.6034L20.4702 19.5155L20.9624 19.4276C21.1523 20.491 20.2292 21.4205 19.1645 21.238L19.249 20.7452ZM16.8576 20.3352L16.9421 19.8424L19.3334 20.2524L19.249 20.7452L19.1645 21.238L16.7731 20.8281L16.8576 20.3352ZM12 21V20.5C12.9326 20.5 13.8292 20.35 14.6675 20.0731L14.8243 20.5479L14.9811 21.0227C14.0429 21.3325 13.0405 21.5 12 21.5V21ZM16.8576 20.3352L16.7731 20.8281C16.3905 20.7625 16.2527 20.7402 16.1432 20.7377L16.1548 20.2378L16.1663 19.738C16.3678 19.7426 16.5949 19.7829 16.9421 19.8424L16.8576 20.3352ZM14.8243 20.5479L14.6675 20.0731C15.153 19.9128 15.4569 19.8108 15.6568 19.776L15.7426 20.2686L15.8283 20.7612C15.7218 20.7798 15.5156 20.8462 14.9811 21.0227L14.8243 20.5479ZM16.1548 20.2378L16.1432 20.7377C16.0041 20.7345 15.9654 20.7374 15.8283 20.7612L15.7426 20.2686L15.6568 19.776C15.8582 19.741 15.962 19.7332 16.1663 19.738L16.1548 20.2378ZM20.4013 15.2344L20.8679 15.4141C20.6408 16.0038 20.5551 16.2315 20.5306 16.3495L20.0411 16.248L19.5515 16.1465C19.5974 15.9251 19.7284 15.5902 19.9348 15.0546L20.4013 15.2344ZM20.109 17.4926L19.6168 17.5805C19.5473 17.1917 19.5002 16.9375 19.4972 16.7128L19.9972 16.7062L20.4971 16.6995C20.4988 16.8215 20.5246 16.976 20.6012 17.4047L20.109 17.4926ZM20.0411 16.248L20.5306 16.3495C20.4991 16.5016 20.495 16.5441 20.4971 16.6995L19.9972 16.7062L19.4972 16.7128C19.4942 16.4849 19.5052 16.3698 19.5515 16.1465L20.0411 16.248ZM3.48145 9.08824L3.95459 9.24992C3.66004 10.1119 3.5 11.0367 3.5 12H3H2.5C2.5 10.9253 2.67867 9.89121 3.00831 8.92655L3.48145 9.08824ZM14.5 14.5L14.7572 14.9287C13.0601 15.947 10.9399 15.947 9.24275 14.9287L9.5 14.5L9.75725 14.0713C11.1377 14.8995 12.8623 14.8995 14.2428 14.0713L14.5 14.5Z" fill="white"/>
</svg>
