<svg width="24" height="24" viewBox="0 0 24 24" fill="none" xmlns="http://www.w3.org/2000/svg">
<path d="M17.0313 3.79348C17.1356 3.28328 17.8645 3.28328 17.9688 3.79348C18.1991 4.92031 19.0797 5.80091 20.2066 6.03123C20.7168 6.13551 20.7168 6.86449 20.2066 6.96877C19.0797 7.19908 18.1991 8.07969 17.9688 9.20651C17.8645 9.71671 17.1356 9.71671 17.0313 9.20651C16.801 8.07969 15.9204 7.19908 14.7935 6.96877C14.2833 6.86449 14.2833 6.13551 14.7935 6.03123C15.9204 5.80091 16.801 4.92031 17.0313 3.79348Z" fill="#4EBEE5"/>
<path d="M20.7188 0.876089C20.7814 0.56997 21.2187 0.56997 21.2813 0.876089C21.4195 1.55218 21.9479 2.08055 22.624 2.21874C22.9301 2.2813 22.9301 2.71869 22.624 2.78126C21.9479 2.91945 21.4195 3.44781 21.2813 4.12391C21.2187 4.43003 20.7814 4.43003 20.7188 4.12391C20.5806 3.44781 20.0522 2.91945 19.3761 2.78126C19.07 2.71869 19.07 2.2813 19.3761 2.21874C20.0522 2.08055 20.5806 1.55218 20.7188 0.876089Z" fill="#4EBEE5"/>
<path d="M14.2724 4.04491C14.5183 4.1706 14.8195 4.07317 14.9452 3.82729C15.0709 3.58142 14.9735 3.2802 14.7276 3.15451L14.5 3.59971L14.2724 4.04491ZM17.7741 11.6361C17.8492 11.3704 17.6948 11.094 17.429 11.0189C17.1633 10.9437 16.887 11.0982 16.8118 11.3639L17.293 11.5L17.7741 11.6361ZM4.87629 14.1707C4.69445 13.9629 4.37857 13.9419 4.17075 14.1237C3.96293 14.3056 3.94187 14.6214 4.12371 14.8293L4.5 14.5L4.87629 14.1707ZM5.36598 15.4897L5.74227 15.1604V15.1604L5.36598 15.4897ZM18.634 15.4897L19.0103 15.8189V15.8189L18.634 15.4897ZM19.8763 14.8293C20.0581 14.6214 20.0371 14.3056 19.8293 14.1237C19.6214 13.9419 19.3056 13.9629 19.1237 14.1707L19.5 14.5L19.8763 14.8293ZM12.5 19C12.5 18.7239 12.2761 18.5 12 18.5C11.7239 18.5 11.5 18.7239 11.5 19H12H12.5ZM11.5 21.5C11.5 21.7761 11.7239 22 12 22C12.2761 22 12.5 21.7761 12.5 21.5H12H11.5ZM10 21.5C9.72386 21.5 9.5 21.7239 9.5 22C9.5 22.2761 9.72386 22.5 10 22.5V22V21.5ZM14 22.5C14.2761 22.5 14.5 22.2761 14.5 22C14.5 21.7239 14.2761 21.5 14 21.5V22V22.5ZM6.5 10H7V8.5H6.5H6V10H6.5ZM12 15.5V15C9.23858 15 7 12.7614 7 10H6.5H6C6 13.3137 8.68629 16 12 16V15.5ZM12 3V2.5C8.68629 2.5 6 5.18629 6 8.5H6.5H7C7 5.73858 9.23858 3.5 12 3.5V3ZM12 3V3.5C12.8193 3.5 13.5912 3.69666 14.2724 4.04491L14.5 3.59971L14.7276 3.15451C13.9087 2.7359 12.9812 2.5 12 2.5V3ZM17.293 11.5L16.8118 11.3639C16.2182 13.4628 14.288 15 12 15V15.5V16C14.7471 16 17.0619 14.1542 17.7741 11.6361L17.293 11.5ZM4.5 14.5L4.12371 14.8293L4.98969 15.8189L5.36598 15.4897L5.74227 15.1604L4.87629 14.1707L4.5 14.5ZM18.634 15.4897L19.0103 15.8189L19.8763 14.8293L19.5 14.5L19.1237 14.1707L18.2577 15.1604L18.634 15.4897ZM12 18.5V19C14.6861 19 17.2415 17.8405 19.0103 15.8189L18.634 15.4897L18.2577 15.1604C16.6788 16.9649 14.3978 18 12 18V18.5ZM5.36598 15.4897L4.98969 15.8189C6.75851 17.8405 9.31388 19 12 19V18.5V18C9.60224 18 7.3212 16.9649 5.74227 15.1604L5.36598 15.4897ZM12 19H11.5V21.5H12H12.5V19H12ZM10 22V22.5H14V22V21.5H10V22Z" fill="#202124"/>
</svg>
